<svg width="247" height="33" viewBox="0 0 247 33" fill="none" xmlns="http://www.w3.org/2000/svg">
<path d="M20.8124 20.8125C20.9341 20.8125 20.995 20.7516 20.995 20.6907C20.995 20.3865 20.995 19.2911 20.995 18.2565V17.1003V16.4309H13.3881H5.78122V10.9539V5.53785L15.092 5.35529L24.342 5.17272V2.73852V0.304321H12.171H0V16.4309V32.5575H2.73847H5.47695L5.65951 26.9588L5.84208 21.2993H13.3881C17.4045 21.2993 20.143 21.1167 20.8124 20.8125Z" fill="url(#paint0_linear_10_310)"/>
<path d="M106.557 0.48684C106.375 0.791115 106.192 8.15457 106.192 16.796L106.131 32.5574H108.748H111.365L111.851 19.3519C112.095 12.0493 112.399 6.0855 112.582 6.0855C112.764 6.0855 115.016 11.8667 117.694 18.865C120.31 25.9242 122.623 31.8272 122.866 31.9489C123.049 32.1314 125.605 32.314 128.587 32.4357L133.881 32.5574V16.4308V0.304275L131.325 0.182565L128.708 0L128.587 13.5707C128.404 25.0723 128.282 27.0805 127.491 27.0805C126.883 27.0805 125.3 23.6117 122.501 15.8223C120.249 9.61509 118.059 3.59044 117.633 2.4342L116.842 0.304275L111.851 0.12171C109.113 0.060855 106.74 0.182565 106.557 0.48684Z" fill="url(#paint1_linear_10_310)"/>
<path d="M239.464 31.6446H239.769C239.951 31.6446 240.073 31.7663 240.073 31.9489C240.073 32.1314 241.533 32.314 243.298 32.3749L246.584 32.4966L242.994 27.6282C241.047 24.8897 239.464 22.5163 239.464 22.3338C239.464 22.0904 239.89 21.9078 240.438 21.9078C240.925 21.9078 242.203 21.1167 243.177 20.143C244.941 18.3782 244.941 18.2565 244.941 11.2582C244.941 7.36345 244.637 3.6513 244.333 2.98189C243.968 2.37334 242.872 1.39966 241.899 0.912825C240.499 0.182565 237.76 0 229.423 0H218.774V16.4917V32.9225L221.39 32.74L223.946 32.5574L224.129 27.263L224.311 21.9078H228.084H231.918L235.691 26.7762L239.464 31.6446Z" fill="url(#paint2_linear_10_310)"/>
<path d="M55.1346 13.2664C50.327 20.0822 46.4932 25.6808 46.6149 25.7417C46.7366 25.8025 54.7086 25.7417 64.2628 25.5591L81.6674 25.2548L72.7825 13.0838L63.8977 0.912842L55.1346 13.2664Z" fill="url(#paint3_linear_10_310)"/>
<path d="M168.203 12.5363C163.7 18.8652 159.744 24.403 159.501 24.829C159.136 25.3767 162.726 25.5592 176.662 25.5592H194.31L185.364 13.2665L176.358 1.03467L168.203 12.5363Z" fill="url(#paint4_linear_10_310)"/>
<path d="M224.251 11.2583V17.0395H230.701C234.231 17.0395 237.639 16.7352 238.308 16.4309C239.282 15.8833 239.464 15.0921 239.464 11.38C239.464 8.70237 239.16 6.6333 238.734 6.20731C238.247 5.72047 235.691 5.47705 231.127 5.47705H224.251V11.2583Z" fill="white"/>
<path d="M58.1774 19.4128C58.1165 19.5345 58.1165 19.5954 58.1774 19.6563C58.3599 19.8997 61.2201 20.0822 64.4454 20.0822H70.4092L69.1921 18.1349C68.5227 17.1003 67.0622 14.9704 65.9059 13.449L63.8369 10.7106L60.7941 14.9096C59.3945 16.9786 58.2991 18.8043 58.1774 19.4128Z" fill="white"/>
<path d="M172.828 15.3963C171.307 17.7697 170.09 19.9605 170.09 20.2647C170.09 20.5081 173.132 20.6907 176.845 20.6907H183.539L180.374 16.0657C178.609 13.5098 176.784 11.319 176.358 11.1973C175.871 11.0756 174.41 12.8404 172.828 15.3963Z" fill="white"/>
<path d="M20.8124 20.8124L21.2384 21.1776C21.3601 21.0558 21.6035 19.9605 21.7861 18.6825C21.9686 17.3437 21.9078 16.5526 21.5426 16.7351L20.9949 17.1003V18.2565C20.9949 19.2911 20.9949 20.3864 20.9949 20.6907C20.9949 20.7516 20.9341 20.8124 20.8124 20.8124Z" fill="white"/>
<path d="M58.1774 19.4128L57.6297 20.0214C57.4471 20.5082 59.2728 20.6908 63.9586 20.5082L70.4092 20.0822H64.4454C61.2201 20.0822 58.3599 19.8997 58.1774 19.6563C58.1165 19.5954 58.1165 19.5346 58.1774 19.4128Z" fill="white"/>
<path d="M239.464 31.6447V31.9489C239.464 32.1315 239.525 32.3141 239.647 32.3749C239.708 32.4358 241.29 32.4966 243.177 32.4966H246.584L243.298 32.3749C241.533 32.3141 240.073 32.1315 240.073 31.9489C240.073 31.7664 239.951 31.6447 239.769 31.6447H239.464Z" fill="white"/>
<defs>
<linearGradient id="paint0_linear_10_310" x1="0" y1="16.4309" x2="24.342" y2="16.4309" gradientUnits="userSpaceOnUse">
<stop stop-color="#02022F"/>
<stop offset="1" stop-color="#291571"/>
</linearGradient>
<linearGradient id="paint1_linear_10_310" x1="106.131" y1="16.2787" x2="133.881" y2="16.2787" gradientUnits="userSpaceOnUse">
<stop stop-color="#02022F"/>
<stop offset="1" stop-color="#291571"/>
</linearGradient>
<linearGradient id="paint2_linear_10_310" x1="218.774" y1="16.4613" x2="246.584" y2="16.4613" gradientUnits="userSpaceOnUse">
<stop stop-color="#02022F"/>
<stop offset="1" stop-color="#291571"/>
</linearGradient>
<linearGradient id="paint3_linear_10_310" x1="46.6121" y1="13.3387" x2="81.6674" y2="13.3387" gradientUnits="userSpaceOnUse">
<stop stop-color="#02022F"/>
<stop offset="1" stop-color="#291571"/>
</linearGradient>
<linearGradient id="paint4_linear_10_310" x1="159.476" y1="13.2969" x2="194.31" y2="13.2969" gradientUnits="userSpaceOnUse">
<stop stop-color="#02022F"/>
<stop offset="1" stop-color="#291571"/>
</linearGradient>
</defs>
</svg>
